<svg width="529" height="493" viewBox="0 0 529 493" fill="none" xmlns="http://www.w3.org/2000/svg">
<g clip-path="url(#clip0_18_311)">
<path d="M356.583 349.494H166.816C150.866 349.494 137.889 336.524 137.889 320.581V130.913C137.889 114.971 150.866 102.001 166.816 102.001H356.583C372.534 102.001 385.511 114.971 385.511 130.913V320.581C385.511 336.524 372.534 349.494 356.583 349.494ZM166.816 106.627C153.396 106.627 142.517 117.5 142.517 130.913V320.581C142.517 333.994 153.396 344.868 166.816 344.868H299.743C344.555 344.868 380.882 308.559 380.882 263.771V130.913C380.882 117.5 370.003 106.627 356.583 106.627L166.816 106.627Z" fill="#F2F2F2"/>
<path d="M187.275 126.35C178.294 126.35 170.987 133.653 170.987 142.63V168.111C170.987 177.087 178.294 184.39 187.275 184.39H212.769C221.751 184.39 229.057 177.087 229.057 168.111V142.63C229.057 133.653 221.751 126.35 212.769 126.35H187.275Z" fill="#F2F2F2"/>
<path d="M187.275 198.082C178.294 198.082 170.987 205.385 170.987 214.362V239.843C170.987 248.82 178.294 256.122 187.275 256.122H212.769C221.751 256.122 229.057 248.82 229.057 239.843V214.362C229.057 205.385 221.751 198.082 212.769 198.082H187.275Z" fill="#F2F2F2"/>
<path d="M187.275 269.815C178.294 269.815 170.987 277.117 170.987 286.094V311.575C170.987 320.552 178.294 327.855 187.275 327.855H212.769C221.751 327.855 229.057 320.552 229.057 311.575V286.094C229.057 277.117 221.751 269.815 212.769 269.815H187.275Z" fill="#F2F2F2"/>
<path d="M204.181 64.1823C192.864 64.1823 183.658 73.3839 183.658 84.6949V116.802C183.658 128.113 192.864 137.314 204.181 137.314H236.305C247.622 137.314 256.828 128.113 256.828 116.802V84.6949C256.828 73.3838 247.622 64.1823 236.305 64.1823H204.181Z" fill="#DF5231"/>
<path d="M309.94 153.907C298.623 153.907 289.417 163.109 289.417 174.42V206.527C289.417 217.838 298.623 227.039 309.94 227.039H342.063C353.38 227.039 362.587 217.838 362.587 206.527V174.42C362.587 163.109 353.38 153.907 342.063 153.907H309.94Z" fill="#DF5231"/>
<path d="M263.961 477.075L257.435 477.02L254.547 451.275L264.178 451.356L263.961 477.075Z" fill="#A0616A"/>
<path d="M243.058 487.447C243.044 489.052 244.339 490.373 245.951 490.388L258.926 490.496L261.197 485.895L262.032 490.52L266.927 490.564L265.691 474.067L263.988 473.954L257.04 473.475L254.799 473.325L254.759 477.993L244.336 485.059C243.543 485.597 243.066 486.489 243.058 487.447Z" fill="#2F2E41"/>
<path d="M297.165 477.075L290.639 477.02L287.75 451.275L297.382 451.356L297.165 477.075Z" fill="#A0616A"/>
<path d="M276.261 487.447C276.247 489.052 277.542 490.373 279.154 490.388L292.129 490.496L294.401 485.895L295.235 490.52L300.131 490.564L298.894 474.067L297.191 473.954L290.244 473.475L288.002 473.325L287.963 477.993L277.54 485.059C276.747 485.597 276.269 486.489 276.261 487.447Z" fill="#2F2E41"/>
<path d="M238.353 268.927L264.806 269.762L289.866 275.328C289.866 275.328 287.36 278.39 295.714 286.739C295.714 286.739 306.852 306.22 299.055 325.145L295.714 400.844C295.714 400.844 305.456 454.207 298.012 471.19L288.174 471.805L271.527 401.46L263.413 325.702L259.515 400.287C259.515 400.287 274.429 451.482 265.011 471.805L254.356 471.19L236.125 400.287C236.125 400.287 228.329 318.466 229.442 302.881C230.556 287.295 238.353 268.927 238.353 268.927Z" fill="#2F2E41"/>
<path d="M327.188 149.311C323.571 150.247 321.399 153.935 322.335 157.55C322.764 159.206 323.775 160.553 325.089 161.443L325.088 161.452L324.575 173.871L334.084 178.269L334.843 159.159L334.777 159.161C335.601 157.692 335.886 155.919 335.431 154.16C334.494 150.546 330.804 148.375 327.188 149.311Z" fill="#A0616A"/>
<path d="M274.043 193.634C272.046 191.655 270.887 188.972 270.844 186.054C270.785 182.14 272.748 178.588 276.093 176.552C279.945 174.207 284.762 174.444 288.365 177.155L318.224 199.625L323.545 167.256L334.967 170.931L332.242 213.081C332.051 216.029 330.384 218.626 327.782 220.028C325.18 221.43 322.093 221.395 319.524 219.934L276.373 195.397C275.506 194.904 274.726 194.31 274.043 193.634Z" fill="#3F3D56"/>
<path d="M228.514 131.205C230.422 134.414 229.367 138.562 226.156 140.47C224.685 141.344 223.018 141.59 221.458 141.297L221.452 141.304L213.068 150.485L203.217 146.917L216.14 132.811L216.186 132.859C216.634 131.236 217.681 129.776 219.244 128.848C222.455 126.94 226.605 127.996 228.514 131.205Z" fill="#A0616A"/>
<path d="M232.135 199.69L184.207 186.751C181.353 185.98 179.137 183.833 178.276 181.006C177.416 178.179 178.062 175.162 180.003 172.934L207.759 141.083L218.46 146.511L199.436 173.243L236.469 178.297C240.937 178.907 244.525 182.128 245.609 186.504C246.55 190.304 245.442 194.208 242.643 196.946C240.557 198.988 237.844 200.078 235.032 200.077C234.071 200.077 233.098 199.95 232.135 199.69Z" fill="#3F3D56"/>
<path d="M300.465 280.064L233.443 283.137C231.603 280.343 232.101 276.142 234.679 270.881C244.412 251.019 237.02 213.443 232.048 193.877C230.652 188.388 234.398 182.93 240.037 182.367L246.356 181.735L252.197 163.913H272.655L281.142 173.604L295.546 182.35C292.924 209.341 281.753 247.454 297.668 266.568C301.148 270.748 302.135 275.269 300.465 280.064Z" fill="#3F3D56"/>
<path d="M259.824 164.324C270.829 164.324 279.751 155.408 279.751 144.408C279.751 133.409 270.829 124.492 259.824 124.492C248.819 124.492 239.897 133.409 239.897 144.408C239.897 155.408 248.819 164.324 259.824 164.324Z" fill="#A0616A"/>
<path d="M282.373 131.66C285.145 121.557 254.929 112.894 249.057 121.03C248.24 119.873 245.223 119.17 243.838 119.525C242.454 119.88 241.289 120.767 240.153 121.626C238.591 122.825 236.973 124.067 236.014 125.791C235.049 127.508 234.899 129.85 236.199 131.34C237.228 132.526 239.037 138.823 240.585 139.135C241.664 139.355 242.573 139.533 243.354 139.66C244.05 138.646 245.824 137.371 245.696 136.143C246.747 136.839 246.363 138.062 246.151 139.313C245.446 143.477 229.552 175.71 238.655 166.211C239.557 166.744 240.672 167.24 241.957 167.694C244.136 164.409 245.926 160.534 247.104 156.482L247.113 156.557C247.518 160.079 250.093 162.968 253.499 163.954C267.164 167.911 278.217 162.105 282.019 151.635C280.627 148.811 280.021 149.118 280.145 149.034C281.883 147.863 284.271 148.629 285.018 150.586C285.238 151.163 285.438 151.655 285.612 152.026C287.592 144.944 289.948 145.966 282.373 131.66Z" fill="#2F2E41"/>
<path d="M272.946 124.33L271.55 117.198C271.433 116.598 271.322 115.948 271.592 115.4C271.94 114.696 272.833 114.405 273.61 114.517C274.387 114.629 274.969 115.339 275.742 115.475C278.431 115.95 281.985 113.296 282.948 120.011C283.35 122.811 287.82 123.106 289.313 125.509C290.805 127.912 290.989 131.38 288.951 133.344C287.324 134.911 284.711 135.092 282.598 134.291C280.485 133.491 278.789 131.873 277.307 130.167C275.826 128.461 274.484 126.615 272.775 125.137" fill="#2F2E41"/>
<path d="M283.437 135.178C277.984 134.417 274.268 132.435 272.391 129.287C269.933 125.168 271.579 120.631 271.65 120.44L272.803 120.868C272.788 120.91 271.295 125.063 273.453 128.669C275.133 131.474 278.549 133.254 283.607 133.961L283.437 135.178Z" fill="#DF5231"/>
<path d="M309.025 58.1149C292.995 58.1149 279.952 45.0788 279.952 29.0574C279.952 13.0361 292.995 0 309.025 0C325.054 0 338.097 13.0361 338.097 29.0574C338.097 45.0788 325.054 58.1149 309.025 58.1149ZM309.025 11.623C299.406 11.623 291.581 19.4435 291.581 29.0574C291.581 38.6714 299.406 46.4919 309.025 46.4919C318.644 46.4919 326.468 38.6714 326.468 29.0574C326.468 19.4435 318.644 11.623 309.025 11.623Z" fill="#DF5231"/>
<path d="M353.755 77.862C352.33 77.862 350.902 77.3427 349.78 76.2899L322.493 50.7313C320.148 48.5378 320.029 44.8602 322.226 42.5192C324.418 40.1696 328.098 40.0533 330.443 42.2524L357.73 67.8111C360.075 70.0045 360.194 73.6821 357.997 76.0232C356.852 77.2462 355.305 77.862 353.755 77.862Z" fill="#DF5231"/>
<path d="M477.078 476.422C479.055 476.546 480.148 474.091 478.652 472.66L478.503 472.069C478.523 472.022 478.542 471.974 478.562 471.927C480.561 467.162 487.337 467.195 489.319 471.967C491.079 476.202 493.319 480.445 493.87 484.923C494.118 486.9 494.006 488.913 493.568 490.853C497.69 481.853 499.859 472.024 499.859 462.14C499.859 459.657 499.723 457.174 499.445 454.697C499.217 452.67 498.901 450.656 498.494 448.661C496.287 437.875 491.509 427.602 484.618 419.022C481.305 417.212 478.542 414.382 476.874 410.991C476.274 409.768 475.804 408.452 475.582 407.112C475.959 407.161 477.003 401.422 476.719 401.07C477.244 400.273 478.185 399.877 478.759 399.099C481.612 395.232 485.544 395.907 487.597 401.163C491.982 403.375 492.024 407.043 489.334 410.571C487.622 412.816 487.387 415.853 485.885 418.256C486.04 418.453 486.2 418.645 486.355 418.843C489.188 422.475 491.639 426.379 493.705 430.481C493.121 425.922 493.983 420.431 495.453 416.891C497.126 412.857 500.261 409.46 503.022 405.973C506.339 401.784 513.14 403.612 513.725 408.922C513.73 408.973 513.736 409.025 513.741 409.076C513.331 409.307 512.929 409.553 512.537 409.812C510.298 411.292 511.072 414.761 513.724 415.17L513.785 415.179C513.636 416.656 513.383 418.12 513.012 419.559C516.554 433.251 508.907 438.238 497.987 438.462C497.746 438.586 497.511 438.709 497.27 438.827C498.376 441.94 499.26 445.134 499.915 448.371C500.502 451.231 500.91 454.122 501.139 457.025C501.423 460.689 501.398 464.37 501.089 468.027L501.108 467.898C501.893 463.87 504.081 460.108 507.258 457.501C511.99 453.615 518.677 452.185 523.782 449.061C526.24 447.558 529.389 449.501 528.96 452.349L528.939 452.485C528.179 452.794 527.438 453.152 526.721 453.554C526.311 453.785 525.909 454.031 525.516 454.29C523.278 455.77 524.051 459.238 526.704 459.648L526.764 459.657C526.807 459.663 526.844 459.669 526.888 459.676C525.583 462.77 523.766 465.643 521.492 468.12C519.277 480.073 509.764 481.207 499.588 477.726H499.581C498.469 482.569 496.843 487.301 494.754 491.811H477.51C477.448 491.619 477.393 491.421 477.337 491.23C478.932 491.329 480.539 491.236 482.109 490.946C480.829 489.377 479.55 487.795 478.27 486.226C478.239 486.195 478.215 486.164 478.19 486.134C477.541 485.33 476.886 484.534 476.237 483.731L476.237 483.73C476.196 481.264 476.492 478.807 477.078 476.422Z" fill="#F2F2F2"/>
<path d="M0 491.862C0 492.493 0.507201 493 1.1388 493H527.727C528.359 493 528.866 492.493 528.866 491.862C528.866 491.231 528.359 490.724 527.727 490.724H1.1388C0.507201 490.724 0 491.231 0 491.862Z" fill="#CCCCCC"/>
</g>
<defs>
<clipPath id="clip0_18_311">
<rect width="529" height="493" fill="white"/>
</clipPath>
</defs>
</svg>
