<svg width="404" height="421" viewBox="0 0 404 421" fill="none" xmlns="http://www.w3.org/2000/svg">
<g clip-path="url(#clip0_15_175)">
<path d="M382.858 392.3C382.858 408.15 297.154 421 191.429 421C85.7047 421 0 408.15 0 392.3C0 381.08 42.9604 371.359 105.57 366.643C131.388 364.693 160.56 363.6 191.429 363.6C204.119 363.6 216.519 363.786 228.511 364.137C316.488 366.73 382.858 378.352 382.858 392.3Z" fill="#3F3D56"/>
<path opacity="0.1" d="M166.729 398.164C207.313 398.164 240.213 394.157 240.213 389.214C240.213 384.272 207.313 380.265 166.729 380.265C126.145 380.265 93.2446 384.272 93.2446 389.214C93.2446 394.157 126.145 398.164 166.729 398.164Z" fill="black"/>
<path d="M166.42 395.695C204.787 395.695 235.89 362.535 235.89 321.631C235.89 280.727 204.787 247.567 166.42 247.567C128.053 247.567 96.9497 280.727 96.9497 321.631C96.9497 362.535 128.053 395.695 166.42 395.695Z" fill="#3F3D56"/>
<path d="M188.342 365.452H145.116V404.953H188.342V365.452Z" fill="#F95329"/>
<path d="M244.844 375.019L242.374 388.597L258.429 391.066L268.927 384.894L268.31 375.019H244.844Z" fill="#575A89"/>
<path d="M163.95 120.115C163.95 120.115 162.715 134.311 159.627 134.928C156.54 135.545 166.42 160.233 166.42 160.233H181.24L192.973 157.147L187.415 143.569C187.415 143.569 180.005 133.694 185.563 125.67C191.12 117.647 163.95 120.115 163.95 120.115Z" fill="#A0616A"/>
<path opacity="0.1" d="M163.95 120.115C163.95 120.115 162.715 134.311 159.627 134.928C156.54 135.545 166.42 160.233 166.42 160.233H181.24L192.973 157.147L187.415 143.569C187.415 143.569 180.005 133.694 185.563 125.67C191.12 117.647 163.95 120.115 163.95 120.115Z" fill="black"/>
<path d="M133.074 228.742C133.074 228.742 117.019 259.602 129.987 265.774C142.954 271.946 146.042 271.329 146.042 273.181C146.042 275.032 143.572 274.415 144.807 277.501C146.042 280.587 142.337 292.931 146.042 300.338C149.747 307.744 148.512 313.299 148.512 313.299C148.512 313.299 148.512 313.916 149.747 316.385C150.982 318.854 151.6 320.705 150.982 321.94C150.365 323.174 146.659 331.198 150.365 333.049C154.07 334.901 173.213 336.135 175.065 333.049C176.918 329.963 173.213 328.112 175.065 326.26C176.918 324.408 178.153 323.791 176.918 322.557C175.683 321.322 174.448 305.892 174.448 305.892C174.448 305.892 177.535 287.994 176.3 285.525C175.065 283.056 173.213 280.587 174.448 278.736C175.683 276.884 176.918 277.501 177.535 275.032C178.153 272.564 179.388 267.009 179.388 267.009L186.18 266.392L202.236 269.478C202.236 269.478 220.144 289.228 239.904 295.4C239.904 295.4 245.462 300.955 247.314 300.955C249.167 300.955 249.167 300.955 248.549 302.189C247.932 303.424 246.079 303.424 247.314 304.658C248.549 305.892 250.402 304.041 249.167 305.892C247.932 307.744 246.697 307.744 247.932 308.978C249.167 310.213 247.314 317.002 247.314 317.619C247.314 318.236 241.757 376.253 243.609 377.487C245.462 378.722 271.397 382.425 273.25 377.487C275.102 372.55 272.015 366.378 272.015 366.378C272.015 366.378 281.277 292.314 278.807 287.376C276.337 282.439 267.692 260.22 221.379 246.024C221.379 246.024 208.411 243.555 208.411 241.704C208.411 239.852 207.176 228.125 204.706 227.508C202.236 226.891 188.033 226.274 188.033 226.274L170.125 231.828L145.424 227.508L133.074 228.742Z" fill="#2F2E41"/>
<path d="M154.687 332.432L151.6 343.541C151.6 343.541 149.13 361.44 152.217 365.761C154.642 369.154 158.973 373.309 167.003 374.039C169.254 374.245 171.508 373.677 173.392 372.43C175.276 371.182 176.677 369.329 177.364 367.177C177.456 366.919 177.514 366.651 177.535 366.378C177.535 365.143 175.683 350.331 175.683 350.331L172.595 334.901L171.978 330.58L154.687 332.432Z" fill="#2F2E41"/>
<path d="M244.844 385.511C244.844 385.511 241.757 382.425 241.139 385.511C240.522 388.597 238.052 401.558 242.374 402.175C246.697 402.793 288.07 408.965 292.393 406.496C296.715 404.027 304.743 400.324 299.803 398.472C294.863 396.621 280.66 391.066 280.66 391.066C280.66 391.066 272.632 380.573 271.397 379.956C270.162 379.339 263.37 380.573 260.282 383.042C257.194 385.511 244.844 385.511 244.844 385.511Z" fill="#2F2E41"/>
<path d="M178.77 133.077C189.342 133.077 197.913 124.51 197.913 113.943C197.913 103.376 189.342 94.8102 178.77 94.8102C168.198 94.8102 159.627 103.376 159.627 113.943C159.627 124.51 168.198 133.077 178.77 133.077Z" fill="#A0616A"/>
<path d="M176.918 157.147L169.508 149.124L161.294 133.077C161.294 133.077 155.305 131.225 154.07 134.311C152.835 137.397 130.604 147.272 130.604 147.272C130.604 147.272 136.162 199.117 133.692 204.054C131.222 208.992 126.899 228.742 130.604 230.594C134.309 232.446 151.6 230.594 157.157 233.063C162.715 235.532 178.77 235.532 183.093 232.446C187.415 229.36 188.65 226.891 192.973 228.742C196.653 230.319 205.256 176.428 207.733 160.368C207.941 159.02 207.768 157.639 207.232 156.384C206.697 155.128 205.82 154.048 204.702 153.265C199.161 149.38 189.182 142.686 187.415 143.569C184.945 144.803 176.918 157.147 176.918 157.147Z" fill="#575A89"/>
<path d="M203.471 154.678C204.921 155.041 206.225 155.838 207.209 156.963C208.192 158.088 208.808 159.487 208.973 160.971L213.968 205.906C213.968 205.906 201.618 232.446 195.443 214.547C189.268 196.648 203.471 154.678 203.471 154.678Z" fill="#575A89"/>
<path d="M202.236 210.226L215.821 206.523C215.821 206.523 218.291 223.805 220.761 223.805C223.231 223.805 212.116 233.68 206.558 232.446C201.001 231.211 192.973 226.891 192.355 223.805C191.738 220.719 197.913 207.758 197.913 207.758L202.236 210.226Z" fill="#575A89"/>
<path d="M164.319 122.197C165.621 119.328 165.395 115.982 166.471 113.022C167.047 111.436 167.982 110.006 169.203 108.841C170.424 107.677 171.898 106.811 173.51 106.31C175.121 105.809 176.826 105.687 178.493 105.954C180.159 106.221 181.741 106.87 183.115 107.849C184.499 108.835 185.887 110.222 187.577 110.033C189.396 109.83 191.019 107.801 192.692 108.545C194.547 109.369 194.046 112.691 195.924 113.458C196.913 113.862 198.082 113.24 198.652 112.337C199.151 111.389 199.423 110.337 199.446 109.266C199.705 106.633 199.94 103.847 198.797 101.461C198.317 100.653 197.898 99.8088 197.545 98.9371C197.345 98.123 197.265 97.2842 197.307 96.4471C197.296 93.353 197.07 90.1256 195.512 87.4519C193.784 84.485 190.588 82.5878 187.254 81.7599C183.92 80.9321 180.428 81.059 177.005 81.3486C171.346 81.8274 165.445 82.8537 160.987 86.3696C160.381 86.812 159.86 87.3596 159.448 87.9863C159.056 88.7309 158.78 89.5302 158.628 90.3573C157.664 94.2803 156.219 98.0692 154.325 101.638C153.414 103.151 152.67 104.758 152.105 106.431C151.632 108.131 151.664 110.068 152.653 111.529C153.459 112.719 154.747 113.353 155.759 114.326C156.762 115.289 157.231 117.143 158.342 117.872C159.312 118.509 160.473 118.06 161.462 118.735C162.732 119.602 162.824 121.503 164.319 122.197Z" fill="#2F2E41"/>
<path d="M180.005 166.405L181.858 162.702C181.858 162.702 209.028 170.726 214.586 178.132C214.586 178.132 228.171 169.491 235.581 170.726L242.992 171.96L220.144 192.328L191.12 189.859L180.005 166.405Z" fill="#F2F2F2"/>
<path d="M178.77 162.702L153.452 197.882L189.885 215.781C189.885 215.781 193.291 217.633 195.911 215.781L220.144 204.672L242.992 171.96L220.144 183.687C220.144 183.687 217.674 178.749 212.733 181.218L178.77 162.702Z" fill="#F95329"/>
<path d="M217.674 225.039L222.614 212.078C222.614 212.078 233.729 197.882 227.554 191.093C221.379 184.304 214.586 210.844 214.586 210.844L217.674 225.039Z" fill="#A0616A"/>
<path d="M160.676 222.971L171.455 214.236C171.455 214.236 188.196 207.53 186.262 198.561C184.328 189.592 165.13 209.143 165.13 209.143L160.676 222.971Z" fill="#A0616A"/>
<path opacity="0.1" d="M134 160.542H133.383C133.383 160.542 123.811 149.124 121.959 164.554C120.106 179.984 113.931 231.211 129.987 233.063C146.042 234.914 157.466 225.348 157.466 225.348C157.466 225.348 169.199 207.449 164.876 207.449C162.785 207.449 157.096 206.51 151.908 206.832C146.374 207.175 141.401 208.733 141.719 207.14C142.337 204.054 151.291 164.862 134 160.542Z" fill="black"/>
<path d="M133.074 148.507L130.604 147.272C130.604 147.272 120.724 149.124 118.871 164.554C117.019 179.984 110.844 231.211 126.899 233.063C142.954 234.914 164.567 230.594 164.567 230.594C164.567 230.594 168.89 207.14 164.567 207.14C160.245 207.14 138.014 210.226 138.632 207.14C139.249 204.054 150.365 152.827 133.074 148.507Z" fill="#575A89"/>
<path d="M208.72 217.942L215.529 207.51L219.835 224.731L208.72 229.669V217.942Z" fill="#575A89"/>
<path d="M68.8362 69.1964C78.0444 69.1964 85.5091 61.7355 85.5091 52.532C85.5091 43.3285 78.0444 35.8676 68.8362 35.8676C59.628 35.8676 52.1633 43.3285 52.1633 52.532C52.1633 61.7355 59.628 69.1964 68.8362 69.1964Z" fill="#F2F2F2"/>
<path d="M88.5966 176.589H49.0757V216.09H88.5966V176.589Z" fill="#F2F2F2"/>
<path d="M229.715 0L239.718 17.3168L249.721 34.6335H229.715H209.709L219.712 17.3168L229.715 0Z" fill="#F2F2F2"/>
<path d="M404 103.831C403.761 111.219 401.961 117.141 398.6 121.596C395.238 126.052 391.245 128.28 386.619 128.28C382.852 128.28 379.549 126.1 376.713 121.739C373.875 117.378 372.456 110.67 372.457 101.615C372.457 99.613 372.504 97.7065 372.6 95.8954C372.695 94.0847 372.814 92.369 372.958 90.7482L375.461 67.228H358.938C356.077 96.9678 353.729 114.662 351.893 120.309C350.057 125.957 346.945 128.781 342.559 128.781C340.579 128.732 338.689 127.941 337.266 126.565C336.44 125.834 335.788 124.929 335.355 123.915C334.922 122.901 334.719 121.804 334.762 120.702C334.762 118.511 336.491 115.449 339.948 111.516C343.405 107.584 345.324 103.998 345.706 100.757L349.997 67.2279H343.06C341.104 67.2396 339.179 67.7175 337.445 68.6219C335.849 69.3546 334.46 70.4724 333.403 71.8747L330.328 76.4501H327.824C330.16 69.2061 333.033 63.761 336.443 60.1146C339.852 56.4686 343.774 54.6456 348.209 54.6456H402.856V67.2279H384.402C383.83 72.9471 383.388 78.6663 383.079 84.3854C382.768 90.1047 382.613 95.8477 382.614 101.615C382.614 105.523 383.52 108.693 385.332 111.123C387.143 113.554 389.408 114.769 392.127 114.769C393.795 114.769 395.548 114.09 397.384 112.731C398.256 112.12 398.985 111.328 399.522 110.408C400.059 109.489 400.391 108.465 400.495 107.405C400.638 106.357 400.746 105.535 400.817 104.939C400.889 104.344 400.924 103.974 400.925 103.831L404 103.831Z" fill="#F95329"/>
<path opacity="0.1" d="M404 103.831C403.761 111.219 401.961 117.141 398.6 121.596C395.238 126.052 391.245 128.28 386.619 128.28C382.852 128.28 379.549 126.1 376.713 121.739C373.875 117.378 372.456 110.67 372.457 101.615C372.457 99.613 372.504 97.7065 372.6 95.8954C372.695 94.0847 372.814 92.369 372.958 90.7482L375.461 67.228H358.938C356.077 96.9678 353.729 114.662 351.893 120.309C350.057 125.957 346.945 128.781 342.559 128.781C340.579 128.732 338.689 127.941 337.266 126.565C336.44 125.834 335.788 124.929 335.355 123.915C334.922 122.901 334.719 121.804 334.762 120.702C334.762 118.511 336.491 115.449 339.948 111.516C343.405 107.584 345.324 103.998 345.706 100.757L349.997 67.2279H343.06C341.104 67.2396 339.179 67.7175 337.445 68.6219C335.849 69.3546 334.46 70.4724 333.403 71.8747L330.328 76.4501H327.824C330.16 69.2061 333.033 63.761 336.443 60.1146C339.852 56.4686 343.774 54.6456 348.209 54.6456H402.856V67.2279H384.402C383.83 72.9471 383.388 78.6663 383.079 84.3854C382.768 90.1047 382.613 95.8477 382.614 101.615C382.614 105.523 383.52 108.693 385.332 111.123C387.143 113.554 389.408 114.769 392.127 114.769C393.795 114.769 395.548 114.09 397.384 112.731C398.256 112.12 398.985 111.328 399.522 110.408C400.059 109.489 400.391 108.465 400.495 107.405C400.638 106.357 400.746 105.535 400.817 104.939C400.889 104.344 400.924 103.974 400.925 103.831L404 103.831Z" fill="black"/>
<path d="M404 101.597C403.761 108.985 401.961 114.907 398.6 119.362C395.238 123.818 391.245 126.046 386.619 126.047C382.852 126.047 379.549 123.866 376.713 119.505C373.875 115.144 372.456 108.436 372.457 99.381C372.457 97.3793 372.504 95.4729 372.6 93.6618C372.695 91.8511 372.814 90.1353 372.958 88.5145L375.461 64.9943H358.938C356.077 94.7341 353.729 112.428 351.893 118.076C350.057 123.723 346.945 126.547 342.559 126.547C340.579 126.499 338.689 125.708 337.266 124.331C336.44 123.6 335.788 122.695 335.355 121.681C334.922 120.667 334.719 119.57 334.762 118.469C334.762 116.277 336.491 113.215 339.948 109.282C343.405 105.35 345.324 101.764 345.706 98.5232L349.997 64.9943H343.06C341.104 65.0059 339.179 65.4838 337.445 66.3882C335.849 67.1209 334.46 68.2387 333.403 69.641L330.328 74.2164H327.824C330.16 66.9725 333.033 61.5273 336.443 57.881C339.852 54.2349 343.774 52.4119 348.209 52.412H402.856V64.9943H384.402C383.83 70.7135 383.388 76.4327 383.079 82.1518C382.768 87.871 382.613 93.6141 382.614 99.381C382.614 103.29 383.52 106.459 385.332 108.889C387.143 111.32 389.408 112.535 392.127 112.535C393.795 112.535 395.548 111.856 397.384 110.498C398.256 109.886 398.985 109.094 399.522 108.175C400.059 107.255 400.391 106.231 400.495 105.172C400.638 104.124 400.746 103.302 400.817 102.705C400.889 102.11 400.924 101.741 400.925 101.597H404Z" fill="#F95329"/>
</g>
<defs>
<clipPath id="clip0_15_175">
<rect width="404" height="421" fill="white"/>
</clipPath>
</defs>
</svg>
